# xmcd CD database file
#
# Track frame offsets:
#	150
#	24482
#	68037
#	89087
#	117194
#	149806
#	179429
#	199951
#	216609
#	240342
#
# Disc length: 3494 seconds
#
# Revision: 0
# Processed by: cddbd v1.5.2PL0 Copyright (c) Steve Scherf et al.
# Submitted via: CDex 1.51
#
DISCID=9d0da40a
DTITLE=Florian Poser and Martin Flindt - Crossing Minds
DYEAR=2012
DGENRE=Jazz
TTITLE0=Crossing Minds
TTITLE1=Even Event
TTITLE2=Do It
TTITLE3=Reflecting
TTITLE4=Insane In Spain
TTITLE5=I've Grown Accustomed To Her Face
TTITLE6=Childhood
TTITLE7=Somersault Dance
TTITLE8=People Are Strange
TTITLE9=Sometimes It Snows In April
EXTD=YEAR: 2012
EXTT0=
EXTT1=
EXTT2=
EXTT3=
EXTT4=
EXTT5=
EXTT6=
EXTT7=
EXTT8=
EXTT9=
PLAYORDER=
